# xmcd
#
# Track frame offsets:
#       150
#       17962
#       29712
#       45962
#       61275
#       76662
#       93287
#       107162
#       125137
#       136700
#
# Disc length: 2003 seconds
#
# Revision: 9
# Processed by: cddbd v1.5.2PL0 Copyright (c) Steve Scherf et al.
# Submitted via: FreeDbEdit v0.1
#
DISCID=7b07d10a
DTITLE=The Romantics - Breakout
DYEAR=1983
DGENRE=Blues
TTITLE0=Talking in Your Sleep
TTITLE1=She's Got Everything
TTITLE2=Rock You Up
TTITLE3=Tell It to Carrie
TTITLE4=I Can't Tell You Anything
TTITLE5=One in a Million
TTITLE6=Got Me Where You Want Me
TTITLE7=Let's Get Started
TTITLE8=National Breakout
TTITLE9=When I Look Into Your Eyes
EXTD=
EXTT0=
EXTT1=
EXTT2=
EXTT3=
EXTT4=
EXTT5=
EXTT6=
EXTT7=
EXTT8=
EXTT9=
PLAYORDER=
